<svg xmlns="http://www.w3.org/2000/svg" xmlns:xlink="http://www.w3.org/1999/xlink" width="1920" zoomAndPan="magnify" viewBox="0 0 1440 809.999993" height="1080" preserveAspectRatio="xMidYMid meet" version="1.0"><defs><clipPath id="01693ce9cd"><path d="M 0 81 L 1440 81 L 1440 714.921875 L 0 714.921875 Z M 0 81 " clip-rule="nonzero"/></clipPath><clipPath id="d81852aeef"><path d="M 0 81 L 1440 81 L 1440 714.75 L 0 714.75 Z M 0 81 " clip-rule="nonzero"/></clipPath><clipPath id="320eac2641"><path d="M 0 203.0625 L 1440 203.0625 L 1440 606.9375 L 0 606.9375 Z M 0 203.0625 " clip-rule="nonzero"/></clipPath></defs><rect x="-144" width="1728" fill="#ffffff" y="-80.999999" height="971.999992" fill-opacity="1"/><rect x="-144" width="1728" fill="#c74525" y="-80.999999" height="971.999992" fill-opacity="1"/><g clip-path="url(#01693ce9cd)"><path fill="#e46b2c" d="M -122.480469 81 L 1561.375 81 L 1561.375 714.921875 L -122.480469 714.921875 Z M -122.480469 81 " fill-opacity="1" fill-rule="nonzero"/></g><g clip-path="url(#d81852aeef)"><path stroke-linecap="butt" transform="matrix(0.75, 0, 0, 0.75, -122.471664, 81.000016)" fill="none" stroke-linejoin="miter" d="M -0.00132351 -0.0000212333 L 2246.587331 -0.0000212333 L 2246.587331 845.218771 L -0.00132351 845.218771 Z M -0.00132351 -0.0000212333 " stroke="#000000" stroke-width="14" stroke-opacity="1" stroke-miterlimit="4"/></g><g clip-path="url(#320eac2641)"><path fill="#00381d" d="M -140.445312 203.0625 L 1544.480469 203.0625 L 1544.480469 606.9375 L -140.445312 606.9375 Z M -140.445312 203.0625 " fill-opacity="1" fill-rule="nonzero"/><path stroke-linecap="butt" transform="matrix(0.75, 0, 0, 0.75, -140.4409, 203.061528)" fill="none" stroke-linejoin="miter" d="M -0.00067565 0.00129575 L 2246.603748 0.00129575 L 2246.603748 538.501357 L -0.00067565 538.501357 Z M -0.00067565 0.00129575 " stroke="#000000" stroke-width="14" stroke-opacity="1" stroke-miterlimit="4"/></g><path fill="#f4deb3" d="M 62.765625 646.035156 L 107.765625 646.035156 L 107.765625 661.035156 L 62.765625 661.035156 M 122.765625 646.035156 L 167.765625 646.035156 L 167.765625 661.035156 L 122.765625 661.035156 M 182.765625 646.035156 L 227.765625 646.035156 L 227.765625 661.035156 L 182.765625 661.035156 M 242.765625 646.035156 L 287.765625 646.035156 L 287.765625 661.035156 L 242.765625 661.035156 M 302.765625 646.035156 L 347.765625 646.035156 L 347.765625 661.035156 L 302.765625 661.035156 M 362.765625 646.035156 L 407.765625 646.035156 L 407.765625 661.035156 L 362.765625 661.035156 M 422.765625 646.035156 L 467.765625 646.035156 L 467.765625 661.035156 L 422.765625 661.035156 M 482.765625 646.035156 L 527.765625 646.035156 L 527.765625 661.035156 L 482.765625 661.035156 M 542.765625 646.035156 L 587.765625 646.035156 L 587.765625 661.035156 L 542.765625 661.035156 M 602.765625 646.035156 L 647.765625 646.035156 L 647.765625 661.035156 L 602.765625 661.035156 M 662.765625 646.035156 L 707.765625 646.035156 L 707.765625 661.035156 L 662.765625 661.035156 M 722.765625 646.035156 L 767.765625 646.035156 L 767.765625 661.035156 L 722.765625 661.035156 M 782.765625 646.035156 L 827.765625 646.035156 L 827.765625 661.035156 L 782.765625 661.035156 M 842.765625 646.035156 L 887.765625 646.035156 L 887.765625 661.035156 L 842.765625 661.035156 M 902.765625 646.035156 L 947.765625 646.035156 L 947.765625 661.035156 L 902.765625 661.035156 M 962.765625 646.035156 L 1007.765625 646.035156 L 1007.765625 661.035156 L 962.765625 661.035156 M 1022.765625 646.035156 L 1067.765625 646.035156 L 1067.765625 661.035156 L 1022.765625 661.035156 M 1082.765625 646.035156 L 1127.765625 646.035156 L 1127.765625 661.035156 L 1082.765625 661.035156 M 1142.765625 646.035156 L 1187.765625 646.035156 L 1187.765625 661.035156 L 1142.765625 661.035156 M 1202.765625 646.035156 L 1247.765625 646.035156 L 1247.765625 661.035156 L 1202.765625 661.035156 M 1262.765625 646.035156 L 1307.765625 646.035156 L 1307.765625 661.035156 L 1262.765625 661.035156 M 1322.765625 646.035156 L 1341.964844 646.035156 L 1341.964844 661.035156 L 1322.765625 661.035156 " fill-opacity="1" fill-rule="nonzero"/><path fill="#f4deb3" d="M 62.765625 155.898438 L 107.765625 155.898438 L 107.765625 170.898438 L 62.765625 170.898438 M 122.765625 155.898438 L 167.765625 155.898438 L 167.765625 170.898438 L 122.765625 170.898438 M 182.765625 155.898438 L 227.765625 155.898438 L 227.765625 170.898438 L 182.765625 170.898438 M 242.765625 155.898438 L 287.765625 155.898438 L 287.765625 170.898438 L 242.765625 170.898438 M 302.765625 155.898438 L 347.765625 155.898438 L 347.765625 170.898438 L 302.765625 170.898438 M 362.765625 155.898438 L 407.765625 155.898438 L 407.765625 170.898438 L 362.765625 170.898438 M 422.765625 155.898438 L 467.765625 155.898438 L 467.765625 170.898438 L 422.765625 170.898438 M 482.765625 155.898438 L 527.765625 155.898438 L 527.765625 170.898438 L 482.765625 170.898438 M 542.765625 155.898438 L 587.765625 155.898438 L 587.765625 170.898438 L 542.765625 170.898438 M 602.765625 155.898438 L 647.765625 155.898438 L 647.765625 170.898438 L 602.765625 170.898438 M 662.765625 155.898438 L 707.765625 155.898438 L 707.765625 170.898438 L 662.765625 170.898438 M 722.765625 155.898438 L 767.765625 155.898438 L 767.765625 170.898438 L 722.765625 170.898438 M 782.765625 155.898438 L 827.765625 155.898438 L 827.765625 170.898438 L 782.765625 170.898438 M 842.765625 155.898438 L 887.765625 155.898438 L 887.765625 170.898438 L 842.765625 170.898438 M 902.765625 155.898438 L 947.765625 155.898438 L 947.765625 170.898438 L 902.765625 170.898438 M 962.765625 155.898438 L 1007.765625 155.898438 L 1007.765625 170.898438 L 962.765625 170.898438 M 1022.765625 155.898438 L 1067.765625 155.898438 L 1067.765625 170.898438 L 1022.765625 170.898438 M 1082.765625 155.898438 L 1127.765625 155.898438 L 1127.765625 170.898438 L 1082.765625 170.898438 M 1142.765625 155.898438 L 1187.765625 155.898438 L 1187.765625 170.898438 L 1142.765625 170.898438 M 1202.765625 155.898438 L 1247.765625 155.898438 L 1247.765625 170.898438 L 1202.765625 170.898438 M 1262.765625 155.898438 L 1307.765625 155.898438 L 1307.765625 170.898438 L 1262.765625 170.898438 M 1322.765625 155.898438 L 1341.964844 155.898438 L 1341.964844 170.898438 L 1322.765625 170.898438 " fill-opacity="1" fill-rule="nonzero"/></svg>